# xmcd
#
# Track frame offsets:
#	150
#	20500
#	41697
#	65310
#	86362
#	108757
#	132122
#	151942
#	174442
#	199332
#	222162
#	241722
#	265337
#
# Disc length: 3822 seconds
#
# Revision: 3
# Processed by: cddbd v1.5.1PL0 Copyright (c) Steve Scherf et al.
# Submitted via: EasyCDDAExtractor 8.0.2.1
#
DISCID=a40eec0d
DTITLE=KOKIA - trip trip
DYEAR=1900
DGENRE=Pop
TTITLE0=調和
TTITLE1=下次見面的時候
TTITLE2=Say Hi!!
TTITLE3=The rule of the universe
TTITLE4=Princess EHIME
TTITLE5=天使
TTITLE6=粉紅的大象
TTITLE7=Hello passing days
TTITLE8=花
TTITLE9=人就是這樣子
TTITLE10=足音
TTITLE11=tomoni
TTITLE12=a gift
EXTD=ID3G: 13
EXTT0=
EXTT1=
EXTT2=
EXTT3=
EXTT4=
EXTT5=
EXTT6=
EXTT7=
EXTT8=
EXTT9=
EXTT10=
EXTT11=
EXTT12=
PLAYORDER=
